<svg xmlns="http://www.w3.org/2000/svg" width="18" height="18" fill="none"><g stroke="#fff" stroke-linecap="round" stroke-linejoin="round" stroke-width="1.3"><path d="M1.991 6.741a7.12 7.12 0 0 1 2.233-3.16M1.578 9.112c0 .832.15 1.627.413 2.37M14.661 3.112A1.334 1.334 0 1 1 12.773 5a1.334 1.334 0 0 1 1.888-1.887Z"></path><path d="M12.681 3.227A7.105 7.105 0 0 0 6.62 2.31M7.852 6.787 10.919 8.6a.591.591 0 0 1 0 1.02l-3.067 1.814a.593.593 0 0 1-.894-.51V7.297a.593.593 0 0 1 .894-.51ZM4.224 14.62a7.036 7.036 0 0 1-.939-.894M6.619 15.914a7.108 7.108 0 0 0 8.42-3.604c.5-.992.76-2.088.76-3.199 0-.429-.043-.847-.116-1.254"></path></g></svg>
