<svg width="18" height="18" viewBox="0 0 18 18" fill="none" xmlns="http://www.w3.org/2000/svg">
<path d="M14.8777 15.3333H3.03031C2.6374 15.3333 2.26058 15.1772 1.98275 14.8994C1.70492 14.6216 1.54883 14.2448 1.54883 13.8518V3.48148C1.54883 3.08857 1.70492 2.71175 1.98275 2.43392C2.26058 2.15608 2.6374 2 3.03031 2H14.8777C15.2707 2 15.6475 2.15608 15.9253 2.43392C16.2031 2.71175 16.3592 3.08857 16.3592 3.48148V13.8518C16.3592 14.2448 16.2031 14.6216 15.9253 14.8994C15.6475 15.1772 15.2707 15.3333 14.8777 15.3333Z" stroke="white" stroke-width="1.06667" stroke-linecap="round" stroke-linejoin="round"/>
<path d="M7.03852 5.39731C7.18001 5.53397 7.29287 5.69745 7.37052 5.87819C7.44816 6.05894 7.48903 6.25334 7.49074 6.45005C7.49245 6.64676 7.45497 6.84184 7.38047 7.02391C7.30599 7.20598 7.19599 7.37139 7.05688 7.51049C6.91778 7.64959 6.75237 7.7596 6.57031 7.83409C6.38823 7.90858 6.19315 7.94606 5.99645 7.94435C5.79974 7.94264 5.60534 7.90177 5.42459 7.82413C5.24384 7.74649 5.08037 7.63363 4.9437 7.49212C4.67384 7.21272 4.52452 6.83849 4.52789 6.45005C4.53127 6.06161 4.68707 5.69003 4.96175 5.41536C5.23643 5.14068 5.608 4.98487 5.99645 4.9815C6.38488 4.97812 6.75911 5.12745 7.03852 5.39731Z" fill="white"/>
<path d="M16.3613 11.6296L13.2361 9.12961C13.1601 9.06881 13.0729 9.02357 12.9795 8.99646C12.886 8.96934 12.7881 8.9609 12.6914 8.97166C12.5947 8.98232 12.501 9.01201 12.4158 9.05894C12.3305 9.10597 12.2554 9.16917 12.1946 9.24517L9.7235 12.3341C9.6627 12.4101 9.58759 12.4733 9.50234 12.5203C9.4171 12.5672 9.32341 12.5969 9.2267 12.6077C9.12999 12.6184 9.03212 12.61 8.93861 12.5829C8.84519 12.5557 8.75798 12.5105 8.68202 12.4496L7.29832 11.3422C7.14689 11.2211 6.95399 11.1642 6.76107 11.1837C6.56814 11.2033 6.39057 11.2977 6.26647 11.4467L3.02795 15.3333" stroke="white" stroke-width="1.06667" stroke-linecap="round" stroke-linejoin="round"/>
</svg>
